<?xml version="1.0" encoding="utf-8"?>
<!-- Generator: Adobe Illustrator 16.0.0, SVG Export Plug-In . SVG Version: 6.00 Build 0)  -->
<!DOCTYPE svg PUBLIC "-//W3C//DTD SVG 1.1//EN" "http://www.w3.org/Graphics/SVG/1.1/DTD/svg11.dtd">
<svg version="1.1" xmlns="http://www.w3.org/2000/svg" xmlns:xlink="http://www.w3.org/1999/xlink" x="0px" y="0px" width="256px"
	 height="255.993px" viewBox="0 0 256 255.993" enable-background="new 0 0 256 255.993" xml:space="preserve">
<g id="レイヤー_2">
	<rect fill="#1F1F1F" width="256.001" height="256"/>
	<g>
		<path fill="#86C591" d="M106.868,182.64l-39.9-111.75c-0.923-2.395-0.562-4.609,1.086-6.647c1.645-2.035,3.852-3.054,6.618-3.054
			h13.234c3.29,0,6.253,0.929,8.889,2.785c2.632,1.858,4.345,4.222,5.135,7.097l25.876,91.807c0,0.121,0.065,0.18,0.198,0.18
			c0.129,0,0.197-0.059,0.197-0.18l26.667-91.807c0.79-2.875,2.5-5.238,5.136-7.097c2.632-1.855,5.595-2.785,8.889-2.785h12.444
			c2.765,0,4.969,1.019,6.616,3.054c1.646,2.038,2.007,4.253,1.087,6.647l-39.9,111.75c-0.923,2.875-2.734,5.21-5.433,7.007
			c-2.7,1.796-5.762,2.695-9.185,2.695h-13.037c-3.293,0-6.29-0.898-8.988-2.695C109.797,187.85,107.92,185.514,106.868,182.64z"/>
	</g>
</g>
<g id="レイヤー_1" display="none">
	
		<image display="inline" overflow="visible" opacity="0.5" width="256" height="256" xlink:href="icon.png"  transform="matrix(1 0 0 1 4.882813e-004 0.6636)">
	</image>
</g>
</svg>
